<svg width="116" height="40" viewBox="0 0 116 40" fill="none" xmlns="http://www.w3.org/2000/svg">
<path d="M9.36865 36V32.4209H11.8223V33.0264H10.0913V33.8735H11.5854V34.479H10.0913V36H9.36865ZM12.4229 36V32.4209H13.9438C14.3263 32.4209 14.6038 32.4535 14.7764 32.5186C14.9505 32.582 15.0897 32.696 15.1938 32.8604C15.298 33.0247 15.3501 33.2127 15.3501 33.4243C15.3501 33.6929 15.2712 33.915 15.1133 34.0908C14.9554 34.265 14.7194 34.3748 14.4053 34.4204C14.5615 34.5116 14.6901 34.6117 14.791 34.7207C14.8936 34.8298 15.0311 35.0234 15.2036 35.3018L15.6406 36H14.7764L14.2539 35.2212C14.0684 34.9429 13.9414 34.7679 13.873 34.6963C13.8047 34.623 13.7323 34.5734 13.6558 34.5474C13.5793 34.5197 13.458 34.5059 13.292 34.5059H13.1455V36H12.4229ZM13.1455 33.9346H13.6802C14.0269 33.9346 14.2433 33.9199 14.3296 33.8906C14.4159 33.8613 14.4834 33.8109 14.5322 33.7393C14.5811 33.6676 14.6055 33.5781 14.6055 33.4707C14.6055 33.3503 14.5729 33.2534 14.5078 33.1802C14.4443 33.1053 14.354 33.0581 14.2368 33.0386C14.1782 33.0304 14.0024 33.0264 13.7095 33.0264H13.1455V33.9346ZM15.8872 34.2324C15.8872 33.8678 15.9417 33.5618 16.0508 33.3145C16.1322 33.1322 16.2428 32.9686 16.3828 32.8237C16.5244 32.6789 16.679 32.5715 16.8467 32.5015C17.0697 32.4071 17.3268 32.3599 17.6182 32.3599C18.1455 32.3599 18.5671 32.5234 18.8828 32.8506C19.2002 33.1777 19.3589 33.6326 19.3589 34.2153C19.3589 34.7931 19.2018 35.2456 18.8877 35.5728C18.5736 35.8983 18.1536 36.061 17.6279 36.061C17.0957 36.061 16.6725 35.8991 16.3584 35.5752C16.0443 35.2497 15.8872 34.8021 15.8872 34.2324ZM16.6318 34.208C16.6318 34.6133 16.7254 34.9209 16.9126 35.1309C17.0998 35.3392 17.3374 35.4434 17.6255 35.4434C17.9136 35.4434 18.1496 35.34 18.3335 35.1333C18.519 34.925 18.6118 34.6133 18.6118 34.1982C18.6118 33.7881 18.5215 33.4821 18.3408 33.2803C18.1618 33.0785 17.9233 32.9775 17.6255 32.9775C17.3276 32.9775 17.0876 33.0801 16.9053 33.2852C16.723 33.4886 16.6318 33.7962 16.6318 34.208ZM19.9155 36V32.4209H20.9971L21.6465 34.8623L22.2886 32.4209H23.3726V36H22.7012V33.1826L21.9907 36H21.2949L20.5869 33.1826V36H19.9155ZM27.772 34.6841L28.4727 34.9062C28.3652 35.2969 28.1862 35.5874 27.9355 35.7778C27.6865 35.9666 27.37 36.061 26.9858 36.061C26.5106 36.061 26.12 35.8991 25.814 35.5752C25.508 35.2497 25.355 34.8053 25.355 34.2422C25.355 33.6465 25.5088 33.1842 25.8164 32.8555C26.124 32.5251 26.5285 32.3599 27.0298 32.3599C27.4676 32.3599 27.8232 32.4893 28.0967 32.748C28.2594 32.901 28.3815 33.1208 28.4629 33.4072L27.7476 33.5781C27.7052 33.3926 27.6165 33.2461 27.4814 33.1387C27.348 33.0312 27.1852 32.9775 26.9932 32.9775C26.7279 32.9775 26.5122 33.0728 26.3462 33.2632C26.1818 33.4536 26.0996 33.762 26.0996 34.1885C26.0996 34.641 26.181 34.9632 26.3438 35.1553C26.5065 35.3473 26.7181 35.4434 26.9785 35.4434C27.1706 35.4434 27.3358 35.3823 27.4741 35.2603C27.6125 35.1382 27.7118 34.9461 27.772 34.6841ZM29.0977 36V32.4209H29.8203V33.8296H31.2363V32.4209H31.959V36H31.2363V34.4351H29.8203V36H29.0977ZM35.936 36H35.1499L34.8374 35.187H33.4067L33.1113 36H32.3447L33.7388 32.4209H34.5029L35.936 36ZM34.6055 34.584L34.1123 33.2559L33.6289 34.584H34.6055ZM36.3413 36V32.4502H37.064V35.397H38.8608V36H36.3413ZM39.3979 36V32.4502H40.1206V35.397H41.9175V36H39.3979ZM42.4351 36V32.4209H45.0889V33.0264H43.1577V33.8198H44.9546V34.4229H43.1577V35.397H45.1572V36H42.4351ZM45.7773 36V32.4209H46.4805L47.9453 34.811V32.4209H48.6167V36H47.8916L46.4487 33.666V36H45.7773ZM51.0483 34.6841V34.0811H52.606V35.5068C52.4546 35.6533 52.2349 35.7827 51.9468 35.895C51.6603 36.0057 51.3698 36.061 51.0752 36.061C50.7008 36.061 50.3745 35.9829 50.0962 35.8267C49.8179 35.6688 49.6087 35.4442 49.4688 35.1528C49.3288 34.8599 49.2588 34.5417 49.2588 34.1982C49.2588 33.8255 49.3369 33.4943 49.4932 33.2046C49.6494 32.9149 49.8781 32.6927 50.1792 32.5381C50.4087 32.4193 50.6943 32.3599 51.0361 32.3599C51.4805 32.3599 51.8271 32.4535 52.0762 32.6406C52.3268 32.8262 52.488 33.0833 52.5596 33.4121L51.8418 33.5464C51.7913 33.3706 51.6961 33.2323 51.5562 33.1313C51.4178 33.0288 51.2445 32.9775 51.0361 32.9775C50.7204 32.9775 50.4689 33.0776 50.2817 33.2778C50.0962 33.478 50.0034 33.7751 50.0034 34.1689C50.0034 34.5938 50.0978 34.9128 50.2866 35.126C50.4754 35.3376 50.7228 35.4434 51.0288 35.4434C51.1802 35.4434 51.3315 35.4141 51.4829 35.3555C51.6359 35.2952 51.7669 35.2228 51.876 35.1382V34.6841H51.0483ZM53.2749 36V32.4209H55.9287V33.0264H53.9976V33.8198H55.7944V34.4229H53.9976V35.397H55.9971V36H53.2749ZM56.4268 34.8354L57.1299 34.7671C57.1722 35.0031 57.2576 35.1764 57.3862 35.2871C57.5164 35.3978 57.6914 35.4531 57.9111 35.4531C58.1439 35.4531 58.3188 35.4043 58.436 35.3066C58.5549 35.2074 58.6143 35.0918 58.6143 34.96C58.6143 34.8753 58.589 34.8037 58.5386 34.7451C58.4897 34.6849 58.4035 34.6328 58.2798 34.5889C58.1951 34.5596 58.0023 34.5075 57.7012 34.4326C57.3138 34.3366 57.042 34.2186 56.8857 34.0786C56.666 33.8817 56.5562 33.6416 56.5562 33.3584C56.5562 33.1761 56.6074 33.006 56.71 32.8481C56.8141 32.6886 56.9631 32.5674 57.1567 32.4844C57.3521 32.4014 57.5872 32.3599 57.8623 32.3599C58.3115 32.3599 58.6493 32.4583 58.8755 32.6553C59.1034 32.8522 59.223 33.1151 59.2344 33.4438L58.5117 33.4756C58.4808 33.2917 58.4141 33.1598 58.3115 33.0801C58.2106 32.9987 58.0584 32.958 57.855 32.958C57.645 32.958 57.4806 33.0011 57.3618 33.0874C57.2853 33.1427 57.2471 33.2168 57.2471 33.3096C57.2471 33.3942 57.2829 33.4666 57.3545 33.5269C57.4456 33.6034 57.667 33.6831 58.0186 33.7661C58.3701 33.8491 58.6297 33.9354 58.7974 34.0249C58.9666 34.1128 59.0985 34.234 59.1929 34.3887C59.2889 34.5417 59.3369 34.7313 59.3369 34.9575C59.3369 35.1626 59.2799 35.3547 59.166 35.5337C59.0521 35.7127 58.891 35.8462 58.6826 35.9341C58.4743 36.0203 58.2147 36.0635 57.9038 36.0635C57.4513 36.0635 57.1038 35.9593 56.8613 35.751C56.6188 35.541 56.474 35.2358 56.4268 34.8354ZM62.1421 36V33.0264H61.0801V32.4209H63.9243V33.0264H62.8647V36H62.1421ZM64.1538 34.2324C64.1538 33.8678 64.2083 33.5618 64.3174 33.3145C64.3988 33.1322 64.5094 32.9686 64.6494 32.8237C64.791 32.6789 64.9456 32.5715 65.1133 32.5015C65.3363 32.4071 65.5934 32.3599 65.8848 32.3599C66.4121 32.3599 66.8337 32.5234 67.1494 32.8506C67.4668 33.1777 67.6255 33.6326 67.6255 34.2153C67.6255 34.7931 67.4684 35.2456 67.1543 35.5728C66.8402 35.8983 66.4202 36.061 65.8945 36.061C65.3623 36.061 64.9391 35.8991 64.625 35.5752C64.3109 35.2497 64.1538 34.8021 64.1538 34.2324ZM64.8984 34.208C64.8984 34.6133 64.992 34.9209 65.1792 35.1309C65.3664 35.3392 65.604 35.4434 65.8921 35.4434C66.1802 35.4434 66.4162 35.34 66.6001 35.1333C66.7856 34.925 66.8784 34.6133 66.8784 34.1982C66.8784 33.7881 66.7881 33.4821 66.6074 33.2803C66.4284 33.0785 66.1899 32.9775 65.8921 32.9775C65.5942 32.9775 65.3542 33.0801 65.1719 33.2852C64.9896 33.4886 64.8984 33.7962 64.8984 34.208ZM69.4004 34.8354L70.1035 34.7671C70.1458 35.0031 70.2313 35.1764 70.3599 35.2871C70.4901 35.3978 70.665 35.4531 70.8848 35.4531C71.1175 35.4531 71.2925 35.4043 71.4097 35.3066C71.5285 35.2074 71.5879 35.0918 71.5879 34.96C71.5879 34.8753 71.5627 34.8037 71.5122 34.7451C71.4634 34.6849 71.3771 34.6328 71.2534 34.5889C71.1688 34.5596 70.9759 34.5075 70.6748 34.4326C70.2874 34.3366 70.0156 34.2186 69.8594 34.0786C69.6396 33.8817 69.5298 33.6416 69.5298 33.3584C69.5298 33.1761 69.5811 33.006 69.6836 32.8481C69.7878 32.6886 69.9367 32.5674 70.1304 32.4844C70.3257 32.4014 70.5609 32.3599 70.8359 32.3599C71.2852 32.3599 71.6229 32.4583 71.8491 32.6553C72.077 32.8522 72.1966 33.1151 72.208 33.4438L71.4854 33.4756C71.4544 33.2917 71.3877 33.1598 71.2852 33.0801C71.1842 32.9987 71.0321 32.958 70.8286 32.958C70.6187 32.958 70.4543 33.0011 70.3354 33.0874C70.259 33.1427 70.2207 33.2168 70.2207 33.3096C70.2207 33.3942 70.2565 33.4666 70.3281 33.5269C70.4193 33.6034 70.6406 33.6831 70.9922 33.7661C71.3438 33.8491 71.6034 33.9354 71.771 34.0249C71.9403 34.1128 72.0721 34.234 72.1665 34.3887C72.2625 34.5417 72.3105 34.7313 72.3105 34.9575C72.3105 35.1626 72.2536 35.3547 72.1396 35.5337C72.0257 35.7127 71.8646 35.8462 71.6562 35.9341C71.4479 36.0203 71.1883 36.0635 70.8774 36.0635C70.425 36.0635 70.0775 35.9593 69.835 35.751C69.5924 35.541 69.4476 35.2358 69.4004 34.8354ZM72.772 34.2324C72.772 33.8678 72.8265 33.5618 72.9355 33.3145C73.0169 33.1322 73.1276 32.9686 73.2676 32.8237C73.4092 32.6789 73.5638 32.5715 73.7314 32.5015C73.9544 32.4071 74.2116 32.3599 74.5029 32.3599C75.0303 32.3599 75.4518 32.5234 75.7676 32.8506C76.085 33.1777 76.2437 33.6326 76.2437 34.2153C76.2437 34.7931 76.0866 35.2456 75.7725 35.5728C75.4583 35.8983 75.0384 36.061 74.5127 36.061C73.9805 36.061 73.5573 35.8991 73.2432 35.5752C72.929 35.2497 72.772 34.8021 72.772 34.2324ZM73.5166 34.208C73.5166 34.6133 73.6102 34.9209 73.7974 35.1309C73.9845 35.3392 74.2222 35.4434 74.5103 35.4434C74.7983 35.4434 75.0343 35.34 75.2183 35.1333C75.4038 34.925 75.4966 34.6133 75.4966 34.1982C75.4966 33.7881 75.4062 33.4821 75.2256 33.2803C75.0465 33.0785 74.8081 32.9775 74.5103 32.9775C74.2124 32.9775 73.9723 33.0801 73.79 33.2852C73.6077 33.4886 73.5166 33.7962 73.5166 34.208ZM76.8296 36V32.4502H77.5522V35.397H79.3491V36H76.8296ZM79.8618 32.4209H80.5845V34.3594C80.5845 34.667 80.5934 34.8664 80.6113 34.9575C80.6423 35.104 80.7155 35.222 80.8311 35.3115C80.9482 35.3994 81.1077 35.4434 81.3096 35.4434C81.5146 35.4434 81.6693 35.4019 81.7734 35.3188C81.8776 35.2342 81.9403 35.1309 81.9614 35.0088C81.9826 34.8867 81.9932 34.6841 81.9932 34.4009V32.4209H82.7158V34.3008C82.7158 34.7305 82.6963 35.034 82.6572 35.2114C82.6182 35.3888 82.5457 35.5386 82.4399 35.6606C82.3358 35.7827 82.1958 35.8804 82.02 35.9536C81.8442 36.0252 81.6147 36.061 81.3315 36.061C80.9897 36.061 80.7301 36.022 80.5527 35.9438C80.377 35.8641 80.2378 35.7616 80.1353 35.6362C80.0327 35.5093 79.9652 35.3766 79.9326 35.2383C79.8854 35.0332 79.8618 34.7305 79.8618 34.3301V32.4209ZM84.2856 36V33.0264H83.2236V32.4209H86.0679V33.0264H85.0083V36H84.2856ZM86.5146 36V32.4209H87.2373V36H86.5146ZM87.7817 34.2324C87.7817 33.8678 87.8363 33.5618 87.9453 33.3145C88.0267 33.1322 88.1374 32.9686 88.2773 32.8237C88.4189 32.6789 88.5736 32.5715 88.7412 32.5015C88.9642 32.4071 89.2214 32.3599 89.5127 32.3599C90.04 32.3599 90.4616 32.5234 90.7773 32.8506C91.0947 33.1777 91.2534 33.6326 91.2534 34.2153C91.2534 34.7931 91.0964 35.2456 90.7822 35.5728C90.4681 35.8983 90.0482 36.061 89.5225 36.061C88.9902 36.061 88.5671 35.8991 88.2529 35.5752C87.9388 35.2497 87.7817 34.8021 87.7817 34.2324ZM88.5264 34.208C88.5264 34.6133 88.62 34.9209 88.8071 35.1309C88.9943 35.3392 89.2319 35.4434 89.52 35.4434C89.8081 35.4434 90.0441 35.34 90.228 35.1333C90.4136 34.925 90.5063 34.6133 90.5063 34.1982C90.5063 33.7881 90.416 33.4821 90.2354 33.2803C90.0563 33.0785 89.8179 32.9775 89.52 32.9775C89.2222 32.9775 88.9821 33.0801 88.7998 33.2852C88.6175 33.4886 88.5264 33.7962 88.5264 34.208ZM91.8271 36V32.4209H92.5303L93.9951 34.811V32.4209H94.6665V36H93.9414L92.4985 33.666V36H91.8271ZM95.25 34.8354L95.9531 34.7671C95.9954 35.0031 96.0809 35.1764 96.2095 35.2871C96.3397 35.3978 96.5146 35.4531 96.7344 35.4531C96.9671 35.4531 97.1421 35.4043 97.2593 35.3066C97.3781 35.2074 97.4375 35.0918 97.4375 34.96C97.4375 34.8753 97.4123 34.8037 97.3618 34.7451C97.313 34.6849 97.2267 34.6328 97.103 34.5889C97.0184 34.5596 96.8255 34.5075 96.5244 34.4326C96.137 34.3366 95.8652 34.2186 95.709 34.0786C95.4893 33.8817 95.3794 33.6416 95.3794 33.3584C95.3794 33.1761 95.4307 33.006 95.5332 32.8481C95.6374 32.6886 95.7863 32.5674 95.98 32.4844C96.1753 32.4014 96.4105 32.3599 96.6855 32.3599C97.1348 32.3599 97.4725 32.4583 97.6987 32.6553C97.9266 32.8522 98.0462 33.1151 98.0576 33.4438L97.335 33.4756C97.304 33.2917 97.2373 33.1598 97.1348 33.0801C97.0339 32.9987 96.8817 32.958 96.6782 32.958C96.4683 32.958 96.3039 33.0011 96.1851 33.0874C96.1086 33.1427 96.0703 33.2168 96.0703 33.3096C96.0703 33.3942 96.1061 33.4666 96.1777 33.5269C96.2689 33.6034 96.4902 33.6831 96.8418 33.7661C97.1934 33.8491 97.453 33.9354 97.6206 34.0249C97.7899 34.1128 97.9217 34.234 98.0161 34.3887C98.1121 34.5417 98.1602 34.7313 98.1602 34.9575C98.1602 35.1626 98.1032 35.3547 97.9893 35.5337C97.8753 35.7127 97.7142 35.8462 97.5059 35.9341C97.2975 36.0203 97.0379 36.0635 96.7271 36.0635C96.2746 36.0635 95.9271 35.9593 95.6846 35.751C95.4421 35.541 95.2972 35.2358 95.25 34.8354Z" fill="white"/>
<path d="M24.9831 8.23622C23.0062 7.12037 18.4962 5.28719 13.9368 5.04808C8.82533 4.78002 2.26032 5.50022 2.26032 10.6273C2.26032 21.9062 24.9831 11.1619 24.9831 21.6922C24.9831 30.5251 4.93191 26.1052 1 24.163M34.5468 16.087H45" stroke="#D65D00" stroke-width="4"/>
<path d="M86 18.56C86 29.3631 114 30.9739 114 16.4205C114 0.672045 86 2.76612 86 13.2954" stroke="#D65D00" stroke-width="4"/>
<path d="M65.1651 15.6566C65.1651 15.3796 65.2066 15.147 65.2895 14.959C65.3513 14.8204 65.4354 14.6961 65.5418 14.586C65.6494 14.4759 65.7669 14.3943 65.8943 14.3411C66.0638 14.2694 66.2592 14.2335 66.4807 14.2335C66.8814 14.2335 67.2018 14.3578 67.4418 14.6064C67.683 14.8551 67.8036 15.2008 67.8036 15.6437C67.8036 16.0828 67.6842 16.4267 67.4455 16.6753C67.2068 16.9227 66.8876 17.0464 66.4881 17.0464C66.0836 17.0464 65.762 16.9233 65.5232 16.6771C65.2845 16.4298 65.1651 16.0896 65.1651 15.6566ZM65.7311 15.6381C65.7311 15.9461 65.8022 16.1799 65.9444 16.3395C66.0867 16.4978 66.2673 16.577 66.4862 16.577C66.7052 16.577 66.8845 16.4984 67.0243 16.3413C67.1653 16.183 67.2358 15.9461 67.2358 15.6307C67.2358 15.3189 67.1672 15.0864 67.0299 14.933C66.8938 14.7796 66.7126 14.7029 66.4862 14.7029C66.2599 14.7029 66.0774 14.7809 65.9389 14.9367C65.8003 15.0913 65.7311 15.3251 65.7311 15.6381ZM68.2341 17V14.2799H69.1154C69.4494 14.2799 69.6671 14.2935 69.7686 14.3207C69.9244 14.3615 70.0549 14.4506 70.1601 14.5879C70.2652 14.724 70.3178 14.9002 70.3178 15.1167C70.3178 15.2837 70.2875 15.4241 70.2269 15.5379C70.1662 15.6517 70.0889 15.7414 69.9949 15.8069C69.9021 15.8713 69.8075 15.9139 69.711 15.935C69.5799 15.9609 69.39 15.9739 69.1414 15.9739H68.7833V17H68.2341ZM68.7833 14.74V15.5119H69.0839C69.3004 15.5119 69.4451 15.4977 69.5181 15.4692C69.591 15.4408 69.6479 15.3963 69.6888 15.3356C69.7308 15.275 69.7519 15.2045 69.7519 15.1241C69.7519 15.0252 69.7228 14.9435 69.6646 14.8792C69.6065 14.8149 69.5329 14.7747 69.4438 14.7586C69.3783 14.7462 69.2465 14.74 69.0486 14.74H68.7833ZM71.381 17V14.74H70.5738V14.2799H72.7354V14.74H71.9302V17H71.381ZM73.075 17V14.2799H73.6242V17H73.075ZM74.1419 17V14.2799H74.9639L75.4574 16.1354L75.9454 14.2799H76.7692V17H76.259V14.8588L75.719 17H75.1902L74.6521 14.8588V17H74.1419ZM77.298 17V14.2799H77.8473V17H77.298ZM78.1367 17V16.5046L79.5654 14.74H78.2981V14.2799H80.2891V14.7066L78.7991 16.5417H80.3466V17H78.1367ZM80.6787 17V14.2799H81.2279V17H80.6787ZM81.7586 17V14.2799H82.293L83.4062 16.0964V14.2799H83.9165V17H83.3654L82.2688 15.2262V17H81.7586ZM85.7646 15.9999V15.5416H86.9483V16.6252C86.8333 16.7365 86.6663 16.8349 86.4474 16.9202C86.2297 17.0043 86.0089 17.0464 85.785 17.0464C85.5005 17.0464 85.2524 16.987 85.0409 16.8683C84.8294 16.7483 84.6704 16.5776 84.5641 16.3562C84.4577 16.1335 84.4045 15.8917 84.4045 15.6307C84.4045 15.3474 84.4639 15.0957 84.5826 14.8755C84.7014 14.6553 84.8752 14.4865 85.104 14.3689C85.2784 14.2786 85.4955 14.2335 85.7553 14.2335C86.093 14.2335 86.3564 14.3046 86.5457 14.4469C86.7362 14.5879 86.8587 14.7833 86.9131 15.0332L86.3676 15.1353C86.3292 15.0017 86.2569 14.8965 86.1505 14.8198C86.0453 14.7419 85.9136 14.7029 85.7553 14.7029C85.5153 14.7029 85.3242 14.779 85.1819 14.9312C85.0409 15.0833 84.9704 15.309 84.9704 15.6084C84.9704 15.9313 85.0422 16.1737 85.1856 16.3357C85.3291 16.4965 85.5172 16.577 85.7497 16.577C85.8647 16.577 85.9798 16.5547 86.0948 16.5102C86.2111 16.4644 86.3107 16.4093 86.3936 16.345V15.9999H85.7646ZM88.5292 17V14.3021H89.0784V16.5417H90.444V17H88.5292ZM90.7261 15.6566C90.7261 15.3796 90.7675 15.147 90.8504 14.959C90.9122 14.8204 90.9964 14.6961 91.1027 14.586C91.2104 14.4759 91.3279 14.3943 91.4553 14.3411C91.6247 14.2694 91.8202 14.2335 92.0416 14.2335C92.4424 14.2335 92.7628 14.3578 93.0027 14.6064C93.2439 14.8551 93.3646 15.2008 93.3646 15.6437C93.3646 16.0828 93.2452 16.4267 93.0064 16.6753C92.7677 16.9227 92.4486 17.0464 92.049 17.0464C91.6445 17.0464 91.3229 16.9233 91.0842 16.6771C90.8454 16.4298 90.7261 16.0896 90.7261 15.6566ZM91.292 15.6381C91.292 15.9461 91.3631 16.1799 91.5054 16.3395C91.6476 16.4978 91.8282 16.577 92.0472 16.577C92.2661 16.577 92.4455 16.4984 92.5853 16.3413C92.7263 16.183 92.7968 15.9461 92.7968 15.6307C92.7968 15.3189 92.7281 15.0864 92.5908 14.933C92.4548 14.7796 92.2735 14.7029 92.0472 14.7029C91.8208 14.7029 91.6383 14.7809 91.4998 14.9367C91.3613 15.0913 91.292 15.3251 91.292 15.6381ZM95.0604 15.9999V15.5416H96.2442V16.6252C96.1292 16.7365 95.9622 16.8349 95.7433 16.9202C95.5256 17.0043 95.3048 17.0464 95.0809 17.0464C94.7964 17.0464 94.5483 16.987 94.3368 16.8683C94.1253 16.7483 93.9663 16.5776 93.86 16.3562C93.7536 16.1335 93.7004 15.8917 93.7004 15.6307C93.7004 15.3474 93.7598 15.0957 93.8785 14.8755C93.9973 14.6553 94.1711 14.4865 94.3999 14.3689C94.5743 14.2786 94.7914 14.2335 95.0512 14.2335C95.3889 14.2335 95.6523 14.3046 95.8416 14.4469C96.0321 14.5879 96.1546 14.7833 96.209 15.0332L95.6635 15.1353C95.6251 15.0017 95.5528 14.8965 95.4464 14.8198C95.3412 14.7419 95.2095 14.7029 95.0512 14.7029C94.8112 14.7029 94.6201 14.779 94.4778 14.9312C94.3368 15.0833 94.2663 15.309 94.2663 15.6084C94.2663 15.9313 94.3381 16.1737 94.4815 16.3357C94.625 16.4965 94.8131 16.577 95.0456 16.577C95.1606 16.577 95.2757 16.5547 95.3907 16.5102C95.507 16.4644 95.6066 16.4093 95.6895 16.345V15.9999H95.0604ZM96.7359 17V14.2799H97.2852V17H96.7359ZM97.6711 16.1149L98.2055 16.063C98.2376 16.2424 98.3026 16.3741 98.4003 16.4582C98.4992 16.5423 98.6322 16.5844 98.7992 16.5844C98.9761 16.5844 99.1091 16.5473 99.1981 16.473C99.2884 16.3976 99.3336 16.3098 99.3336 16.2096C99.3336 16.1452 99.3144 16.0908 99.2761 16.0463C99.239 16.0005 99.1734 15.9609 99.0794 15.9275C99.0151 15.9053 98.8685 15.8657 98.6396 15.8088C98.3452 15.7358 98.1387 15.6461 98.0199 15.5397C97.8529 15.3901 97.7694 15.2076 97.7694 14.9924C97.7694 14.8538 97.8084 14.7246 97.8863 14.6046C97.9655 14.4834 98.0787 14.3912 98.2259 14.3281C98.3743 14.265 98.5531 14.2335 98.7621 14.2335C99.1035 14.2335 99.3602 14.3083 99.5321 14.458C99.7053 14.6077 99.7962 14.8075 99.8049 15.0573L99.2557 15.0814C99.2322 14.9417 99.1814 14.8415 99.1035 14.7809C99.0268 14.719 98.9112 14.6881 98.7565 14.6881C98.597 14.6881 98.472 14.7209 98.3817 14.7864C98.3236 14.8285 98.2945 14.8848 98.2945 14.9553C98.2945 15.0196 98.3217 15.0746 98.3762 15.1204C98.4454 15.1785 98.6137 15.2392 98.8809 15.3022C99.148 15.3653 99.3453 15.4309 99.4728 15.4989C99.6014 15.5657 99.7016 15.6579 99.7733 15.7754C99.8463 15.8917 99.8828 16.0358 99.8828 16.2077C99.8828 16.3636 99.8395 16.5095 99.7529 16.6456C99.6663 16.7817 99.5439 16.8831 99.3855 16.9499C99.2272 17.0155 99.0299 17.0482 98.7937 17.0482C98.4498 17.0482 98.1857 16.9691 98.0014 16.8107C97.8171 16.6512 97.707 16.4192 97.6711 16.1149ZM100.957 17V14.74H100.15V14.2799H102.312V14.74H101.506V17H100.957ZM102.651 17V14.2799H103.2V17H102.651ZM105.466 15.9999L105.998 16.1688C105.917 16.4656 105.781 16.6864 105.59 16.8312C105.401 16.9746 105.16 17.0464 104.868 17.0464C104.507 17.0464 104.21 16.9233 103.978 16.6771C103.745 16.4298 103.629 16.0921 103.629 15.6641C103.629 15.2113 103.746 14.86 103.98 14.6102C104.213 14.359 104.521 14.2335 104.902 14.2335C105.235 14.2335 105.505 14.3318 105.713 14.5285C105.836 14.6448 105.929 14.8118 105.991 15.0295L105.447 15.1594C105.415 15.0184 105.348 14.907 105.245 14.8254C105.144 14.7438 105.02 14.7029 104.874 14.7029C104.672 14.7029 104.508 14.7753 104.382 14.92C104.257 15.0647 104.195 15.2992 104.195 15.6232C104.195 15.9671 104.257 16.212 104.38 16.358C104.504 16.504 104.665 16.577 104.863 16.577C105.009 16.577 105.134 16.5306 105.24 16.4378C105.345 16.345 105.42 16.1991 105.466 15.9999ZM106.332 16.1149L106.867 16.063C106.899 16.2424 106.964 16.3741 107.062 16.4582C107.161 16.5423 107.294 16.5844 107.461 16.5844C107.637 16.5844 107.77 16.5473 107.859 16.473C107.95 16.3976 107.995 16.3098 107.995 16.2096C107.995 16.1452 107.976 16.0908 107.937 16.0463C107.9 16.0005 107.835 15.9609 107.741 15.9275C107.676 15.9053 107.53 15.8657 107.301 15.8088C107.007 15.7358 106.8 15.6461 106.681 15.5397C106.514 15.3901 106.431 15.2076 106.431 14.9924C106.431 14.8538 106.47 14.7246 106.548 14.6046C106.627 14.4834 106.74 14.3912 106.887 14.3281C107.036 14.265 107.214 14.2335 107.423 14.2335C107.765 14.2335 108.022 14.3083 108.193 14.458C108.367 14.6077 108.458 14.8075 108.466 15.0573L107.917 15.0814C107.893 14.9417 107.843 14.8415 107.765 14.7809C107.688 14.719 107.572 14.6881 107.418 14.6881C107.258 14.6881 107.133 14.7209 107.043 14.7864C106.985 14.8285 106.956 14.8848 106.956 14.9553C106.956 15.0196 106.983 15.0746 107.038 15.1204C107.107 15.1785 107.275 15.2392 107.542 15.3022C107.809 15.3653 108.007 15.4309 108.134 15.4989C108.263 15.5657 108.363 15.6579 108.435 15.7754C108.508 15.8917 108.544 16.0358 108.544 16.2077C108.544 16.3636 108.501 16.5095 108.414 16.6456C108.328 16.7817 108.205 16.8831 108.047 16.9499C107.889 17.0155 107.691 17.0482 107.455 17.0482C107.111 17.0482 106.847 16.9691 106.663 16.8107C106.478 16.6512 106.368 16.4192 106.332 16.1149Z" fill="white"/>
<path d="M56 23.5571C49.5512 27.9917 31.9497 30.3036 31.0345 16.6512C30.2048 4.27493 44.4978 2.21604 56 8.3135" stroke="#D65D00" stroke-width="4"/>
<path d="M84 23.5571C77.2933 27.9917 58.9877 30.3036 58.0359 16.6512C57.173 4.27493 72.0377 2.21604 84 8.3135" stroke="#D65D00" stroke-width="4"/>
</svg>
